#N canvas 0 87 1366 681 10;
#X obj 302 226 tgl 15 0 empty empty empty 17 7 0 10 -262144 -1 -1 0
1;
#X floatatom 302 408 5 0 0 0 - - -, f 5;
#X obj 27 7 tgl 15 0 empty empty empty 17 7 0 10 -262144 -1 -1 0 1
;
#X obj 26 109 gemwin;
#X obj 564 225 tgl 15 0 empty empty empty 17 7 0 10 -262144 -1 -1 0
1;
#X floatatom 564 383 5 0 0 0 - - -, f 5;
#X text 383 390 O QUÊ?;
#X text 652 363 QUEM?;
#X msg 44 29 create \, 1;
#X msg 51 54 destroy;
#X msg 63 78 1;
#X obj 302 361 metro;
#X obj 564 338 metro;
#X obj 591 294 * 1000;
#X floatatom 591 316 5 0 0 0 - - -, f 5;
#X text 622 269 segundos;
#X floatatom 329 339 7 0 0 0 - - -, f 7;
#X text 366 295 minutos;
#X obj 329 318 expr 1000*($f1 * 60);
#X obj 406 112 clock;
#N canvas 449 203 450 323 textwhat 0;
#X obj 238 25 inlet;
#X obj 17 14 gemhead;
#X obj 133 169 color;
#X obj 244 255 text2d;
#X floatatom 277 230 5 0 0 0 - - -, f 5;
#X msg 265 116 font vera.ttf;
#X obj 17 135 translateXYZ;
#X text 101 101 Y;
#X msg 64 102 1.62;
#X text 74 78 X;
#X obj 109 50 loadbang;
#X text 180 117 RGB;
#X msg 160 141 0 0.3 0.57;
#X obj 255 93 loadbang;
#X msg 41 78 0.22;
#X msg 276 203 200;
#X text 274 137 A fonte pode ser substituída (deve estar na mesma
pasta);
#X connect 0 0 3 0;
#X connect 1 0 6 0;
#X connect 2 0 3 0;
#X connect 4 0 3 1;
#X connect 5 0 3 0;
#X connect 6 0 2 0;
#X connect 8 0 6 2;
#X connect 10 0 12 0;
#X connect 10 0 8 0;
#X connect 10 0 14 0;
#X connect 12 0 2 1;
#X connect 13 0 15 0;
#X connect 13 0 5 0;
#X connect 14 0 6 1;
#X connect 15 0 4 0;
#X restore 302 453 pd textwhat;
#N canvas 705 129 450 300 textwho 0;
#X obj 25 15 gemhead;
#X obj 130 224 color;
#X obj 268 305 text2d;
#X floatatom 403 275 5 0 0 0 - - -, f 5;
#X msg 400 219 font vera.ttf;
#X obj 27 185 translateXYZ, f 13;
#X obj 127 90 loadbang;
#X text 89 129 X, f 2;
#X text 125 157 Y;
#X msg 173 168 1 1 1;
#X text 190 146 RGB;
#X msg 404 247 145;
#X obj 268 33 inlet;
#X obj 423 183 loadbang;
#X msg 51 131 -3.47;
#X msg 88 159 -2.74;
#X connect 0 0 5 0;
#X connect 1 0 2 0;
#X connect 3 0 2 1;
#X connect 4 0 2 0;
#X connect 5 0 1 0;
#X connect 6 0 9 0;
#X connect 6 0 15 0;
#X connect 6 0 14 0;
#X connect 9 0 1 1;
#X connect 11 0 3 0;
#X connect 12 0 2 0;
#X connect 13 0 11 0;
#X connect 13 0 4 0;
#X connect 14 0 5 1;
#X connect 15 0 5 2;
#X restore 564 428 pd textwho;
#X obj 564 362 random 5;
#X obj 591 249 loadbang;
#X obj 302 33 bng 62 250 50 0 empty empty empty 17 7 0 10 -56282 -1
-1;
#X obj 564 31 bng 55 250 50 0 empty empty empty 17 7 0 10 -234331 -1
-1;
#X text 624 47 PARAR CRONOMETRO//SORTEIOS;
#X text 370 33 COMEÇAR CRONOMETRO//SORTEIOS;
#X msg 591 271 60;
#N canvas 449 231 450 300 info 1;
#X text 39 64 Felippe Brandão \, 2017 - Distribuição livre;
#X text 52 106 A biblioteca GEM é necessária.;
#X text 39 27 maestRandom para improvisação livre em grupo;
#X restore 50 592 pd info;
#N canvas 0 0 1349 706 selwhat 0;
#X obj 67 107 bng 15 250 50 0 empty empty empty 17 7 0 10 -262144 -1
-1;
#X obj 134 109 bng 15 250 50 0 empty empty empty 17 7 0 10 -262144
-1 -1;
#X obj 218 105 bng 15 250 50 0 empty empty empty 17 7 0 10 -262144
-1 -1;
#X obj 307 106 bng 15 250 50 0 empty empty empty 17 7 0 10 -262144
-1 -1;
#X obj 389 102 bng 15 250 50 0 empty empty empty 17 7 0 10 -262144
-1 -1;
#X obj 483 104 bng 15 250 50 0 empty empty empty 17 7 0 10 -262144
-1 -1;
#X obj 304 36 inlet;
#X obj 338 238 outlet;
#X msg 65 129 text NADA;
#X msg 218 127 text GESTOS;
#X msg 133 128 text ESPAÇO;
#X msg 389 126 text DESENHO;
#X msg 483 126 text LIVRE;
#X obj 304 61 sel 0 1 2 3 4 5;
#X msg 307 124 text ___...;
#X connect 0 0 8 0;
#X connect 1 0 10 0;
#X connect 2 0 9 0;
#X connect 3 0 14 0;
#X connect 4 0 11 0;
#X connect 5 0 12 0;
#X connect 6 0 13 0;
#X connect 8 0 7 0;
#X connect 9 0 7 0;
#X connect 10 0 7 0;
#X connect 11 0 7 0;
#X connect 12 0 7 0;
#X connect 13 0 0 0;
#X connect 13 1 1 0;
#X connect 13 2 2 0;
#X connect 13 3 3 0;
#X connect 13 4 4 0;
#X connect 13 5 5 0;
#X connect 14 0 7 0;
#X restore 302 430 pd selwhat;
#N canvas 190 239 450 300 selwho 0;
#X obj 210 31 inlet;
#X obj 189 83 bng 15 250 50 0 empty empty empty 17 7 0 10 -262144 -1
-1;
#X obj 209 84 bng 15 250 50 0 empty empty empty 17 7 0 10 -262144 -1
-1;
#X obj 228 84 bng 15 250 50 0 empty empty empty 17 7 0 10 -262144 -1
-1;
#X obj 248 84 bng 15 250 50 0 empty empty empty 17 7 0 10 -262144 -1
-1;
#X obj 268 83 bng 15 250 50 0 empty empty empty 17 7 0 10 -262144 -1
-1;
#X obj 287 83 bng 15 250 50 0 empty empty empty 17 7 0 10 -262144 -1
-1;
#X obj 340 48 bng 15 250 50 0 empty empty empty 17 7 0 10 -262144 -1
-1;
#X obj 210 57 sel 0 1 2 3 4 5;
#X msg 95 123 text Todos;
#X msg 411 121 text Solista;
#X msg 2 123 text Silêncio;
#X obj 245 215 outlet;
#X msg 340 68 none;
#X msg 167 123 text Dupla;
#X msg 246 122 text Trio;
#X msg 317 121 text Quarteto;
#X connect 0 0 8 0;
#X connect 1 0 11 0;
#X connect 2 0 9 0;
#X connect 3 0 14 0;
#X connect 4 0 15 0;
#X connect 5 0 16 0;
#X connect 6 0 10 0;
#X connect 7 0 13 0;
#X connect 8 0 1 0;
#X connect 8 1 2 0;
#X connect 8 2 3 0;
#X connect 8 3 4 0;
#X connect 8 4 5 0;
#X connect 8 5 6 0;
#X connect 8 6 7 0;
#X connect 9 0 12 0;
#X connect 10 0 12 0;
#X connect 11 0 12 0;
#X connect 14 0 12 0;
#X connect 15 0 12 0;
#X connect 16 0 12 0;
#X restore 564 404 pd selwho;
#X obj 329 255 random 5;
#X floatatom 329 297 5 0 0 0 - - -, f 5;
#X obj 302 386 random 5;
#X obj 329 276 + 1;
#X connect 0 0 11 0;
#X connect 1 0 30 0;
#X connect 2 0 3 0;
#X connect 4 0 12 0;
#X connect 5 0 31 0;
#X connect 8 0 3 0;
#X connect 9 0 3 0;
#X connect 10 0 3 0;
#X connect 11 0 34 0;
#X connect 11 0 32 0;
#X connect 12 0 22 0;
#X connect 13 0 14 0;
#X connect 14 0 12 1;
#X connect 16 0 11 1;
#X connect 18 0 16 0;
#X connect 22 0 5 0;
#X connect 23 0 28 0;
#X connect 24 0 0 0;
#X connect 24 0 4 0;
#X connect 24 0 19 0;
#X connect 25 0 0 0;
#X connect 25 0 4 0;
#X connect 28 0 13 0;
#X connect 30 0 20 0;
#X connect 31 0 21 0;
#X connect 32 0 35 0;
#X connect 33 0 18 0;
#X connect 34 0 1 0;
#X connect 35 0 33 0;
